<?xml version="1.0" encoding="UTF-8" standalone="no"?>
<!-- Created with Inkscape (http://www.inkscape.org/) -->

<svg
   xmlns:dc="http://purl.org/dc/elements/1.1/"
   xmlns:cc="http://creativecommons.org/ns#"
   xmlns:rdf="http://www.w3.org/1999/02/22-rdf-syntax-ns#"
   xmlns:svg="http://www.w3.org/2000/svg"
   xmlns="http://www.w3.org/2000/svg"
   version="1.1"
   width="34"
   height="34"
   id="svg2">
  <defs
     id="defs4" />
  <metadata
     id="metadata7">
    <rdf:RDF>
      <cc:Work
         rdf:about="">
        <dc:format>image/svg+xml</dc:format>
        <dc:type
           rdf:resource="http://purl.org/dc/dcmitype/StillImage" />
        <dc:title></dc:title>
      </cc:Work>
    </rdf:RDF>
  </metadata>
  <g
     transform="translate(0,-1018.3622)"
     id="layer1">
    <g
       transform="translate(0.996,1019.7601)"
       id="g3863"
       style="fill:#181616;fill-opacity:1">
      <path
         d="M 16.003,0 C 7.17,0 0.008,7.162 0.008,15.997 c 0,7.067 4.582,13.063 10.94,15.179 0.8,0.146 1.052,-0.328 1.052,-0.752 0,-0.38 0.008,-1.442 0,-2.777 C 7.551,28.614 6.629,25.54 6.629,25.54 5.902,23.692 4.854,23.2 4.854,23.2 3.402,22.208 4.963,22.227 4.963,22.227 c 1.605,0.113 2.451,1.649 2.451,1.649 1.427,2.443 3.743,1.737 4.654,1.329 0.146,-1.034 0.56,-1.739 1.017,-2.139 C 9.533,22.662 5.799,21.29 5.799,15.16 5.799,13.413 6.422,11.986 7.445,10.868 7.28,10.464 6.73,8.837 7.602,6.634 c 0,0 1.343,-0.43 4.398,1.641 1.276,-0.355 2.645,-0.532 4.005,-0.538 1.359,0.006 2.727,0.183 4.005,0.538 3.055,-2.07 4.396,-1.641 4.396,-1.641 0.872,2.203 0.323,3.83 0.159,4.234 1.023,1.118 1.644,2.545 1.644,4.292 0,6.146 -3.74,7.498 -7.304,7.893 C 19.479,23.548 20,24.508 20,26 c 0,2 0,3.902 0,4.428 0,0.428 0.258,0.901 1.07,0.746 C 27.422,29.055 32,23.062 32,15.997 32,7.162 24.838,0 16.003,0 z"
         id="path3843"
         style="fill:#181616;fill-opacity:1;fill-rule:evenodd" />
      <g
         id="g3845"
         style="fill:#181616;fill-opacity:1" />
      <g
         id="g3847"
         style="fill:#181616;fill-opacity:1" />
      <g
         id="g3849"
         style="fill:#181616;fill-opacity:1" />
      <g
         id="g3851"
         style="fill:#181616;fill-opacity:1" />
      <g
         id="g3853"
         style="fill:#181616;fill-opacity:1" />
      <g
         id="g3855"
         style="fill:#181616;fill-opacity:1" />
    </g>
    <path
       d="M 11.084145,32.178571 C 7.5157023,30.76342 4.3157969,27.782182 2.6719843,24.341261 -0.79774156,17.078234 1.5552713,8.525537 8.236799,4.1143542 c 2.689379,-1.7755434 5.529357,-2.6249818 8.776259,-2.6249818 4.299639,0 8.180709,1.6083607 11.231778,4.6545798 3.008223,3.0034408 4.648442,6.9391748 4.659755,11.1811558 0.0072,2.719114 -0.50687,4.897447 -1.7182,7.28003 -1.717699,3.378565 -4.491495,5.968453 -7.988541,7.458884 -1.239148,0.528122 -1.522359,0.574773 -1.862947,0.306868 l -0.263441,-0.207223 -0.03544,-2.93254 c -0.03306,-2.735468 -0.04983,-2.968197 -0.249649,-3.463123 -0.117816,-0.29182 -0.326583,-0.700389 -0.463928,-0.907931 l -0.249717,-0.377349 0.3684,-0.05584 c 2.192346,-0.332329 3.742413,-0.998042 4.801652,-2.062183 1.153236,-1.158572 1.708395,-2.473236 1.935627,-4.583726 0.210668,-1.956641 -0.111724,-3.471037 -1.026951,-4.823987 l -0.513831,-0.759579 0.129553,-0.493048 c 0.298428,-1.135748 -0.0306,-3.6112925 -0.49616,-3.7330396 -0.648004,-0.1694571 -2.354695,0.4231368 -3.70991,1.2881475 L 21.030761,9.5979806 19.934048,9.3715652 C 18.358278,9.0462486 15.670491,9.0456808 14.098259,9.3703326 L 13.007739,9.5955151 12.156914,9.0947477 C 10.859125,8.3309121 9.2341876,7.7971202 8.711632,7.9629728 8.4995447,8.0302867 8.2690594,8.7293588 8.1327937,9.7186146 8.0275988,10.482304 8.0492518,10.866613 8.2481168,11.765436 c 0.099336,0.448976 0.093706,0.465966 -0.3921201,1.183316 -0.2710968,0.400289 -0.6174734,1.082794 -0.7697258,1.516676 -0.2610439,0.743913 -0.2763192,0.878808 -0.2679927,2.366632 0.00765,1.36675 0.043002,1.706385 0.2643452,2.539566 0.3507229,1.320192 0.7574301,2.048621 1.643906,2.944301 0.6118514,0.618204 0.9081315,0.829449 1.6796816,1.197602 0.889593,0.424479 2.062284,0.774066 3.072576,0.915957 l 0.459421,0.06452 -0.297586,0.422189 C 13.476948,25.1484 13.265807,25.62051 13.171418,25.96533 l -0.171617,0.626946 -0.581875,0.181177 c -0.420877,0.131048 -0.786507,0.16997 -1.321447,0.140668 -1.1211592,-0.06141 -1.8461336,-0.498105 -2.5581475,-1.540916 -0.8176018,-1.197453 -1.609423,-1.727662 -2.5890532,-1.733649 -0.6673753,-0.0041 -0.8637878,0.128956 -0.684631,0.463713 0.066113,0.123535 0.270478,0.327576 0.4541435,0.453425 0.7146442,0.489682 1.2362345,1.140996 1.7340849,2.165366 0.3125965,0.643193 0.6503637,1.173822 0.9167543,1.440213 0.9667065,0.966707 2.567031,1.32928 4.336334,0.982451 l 0.278255,-0.05455 -0.03173,1.546773 c -0.03053,1.488172 -0.04055,1.553908 -0.264526,1.735059 -0.322565,0.26089 -0.517448,0.237384 -1.603817,-0.193443 l 0,0 z"
       transform="translate(0,1018.3622)"
       id="path3872"
       style="fill:#181616;fill-opacity:1;fill-rule:nonzero;stroke:#000000;stroke-width:1.99999988;stroke-linecap:butt;stroke-linejoin:round;stroke-miterlimit:4;stroke-opacity:1;stroke-dasharray:none" />
  </g>
</svg>
