<?xml version="1.0" encoding="UTF-8" standalone="no"?>
<!-- Created with Inkscape (http://www.inkscape.org/) -->

<svg
   xmlns:dc="http://purl.org/dc/elements/1.1/"
   xmlns:cc="http://creativecommons.org/ns#"
   xmlns:rdf="http://www.w3.org/1999/02/22-rdf-syntax-ns#"
   xmlns:svg="http://www.w3.org/2000/svg"
   xmlns="http://www.w3.org/2000/svg"
   version="1.1"
   width="34"
   height="34"
   id="svg2">
  <defs
     id="defs4" />
  <metadata
     id="metadata7">
    <rdf:RDF>
      <cc:Work
         rdf:about="">
        <dc:format>image/svg+xml</dc:format>
        <dc:type
           rdf:resource="http://purl.org/dc/dcmitype/StillImage" />
        <dc:title></dc:title>
      </cc:Work>
    </rdf:RDF>
  </metadata>
  <g
     transform="translate(0,-1018.3622)"
     id="layer1">
    <g
       transform="translate(1,1019.3622)"
       id="g3964">
      <g
         id="g3934">
        <path
           d="m 32,30 c 0,1.104 -0.896,2 -2,2 H 2 C 0.896,32 0,31.104 0,30 V 2 C 0,0.896 0.896,0 2,0 h 28 c 1.104,0 2,0.896 2,2 v 28 z"
           id="path3936"
           style="fill:#007bb5" />
        <g
           id="g3938">
          <rect
             width="4"
             height="14"
             x="7"
             y="11"
             id="rect3940"
             style="fill:#ffffff" />
          <path
             d="M 20.499,11 C 17.708,11 17.228,12.018 17,13 v -2 h -4 v 14 h 4 v -8 c 0,-1.297 0.703,-2 2,-2 1.266,0 2,0.688 2,2 v 8 h 4 v -7 c 0,-4 -0.521,-7 -4.501,-7 z"
             id="path3942"
             style="fill:#ffffff" />
          <circle
             cx="9"
             cy="8"
             r="2"
             id="circle3944"
             style="fill:#ffffff" />
        </g>
      </g>
      <g
         id="g3946" />
      <g
         id="g3948" />
      <g
         id="g3950" />
      <g
         id="g3952" />
      <g
         id="g3954" />
      <g
         id="g3956" />
    </g>
    <path
       d="M 2.1129955,32.680174 C 1.6875255,32.457906 1.5351261,32.305507 1.3128579,31.880037 L 1.0382946,31.354463 1.0404603,16.993367 C 1.0425348,3.2365686 1.0502977,2.6153794 1.2249442,2.2308561 1.4743367,1.6817631 2.0474008,1.2321074 2.6598352,1.1049665 2.9991539,1.0345242 7.6959251,1.0098156 17.309327,1.027899 l 14.150045,0.026617 0.394438,0.2113787 c 0.45111,0.2417487 0.63958,0.4349056 0.900248,0.9226323 0.177382,0.3318938 0.185471,0.8879757 0.210868,14.495619 0.01869,10.013619 -0.0053,14.303568 -0.08218,14.674119 -0.129126,0.622657 -0.550327,1.150728 -1.126699,1.412568 -0.376473,0.171027 -1.078729,0.179676 -14.756381,0.181739 l -14.3610962,0.0022 -0.5255743,-0.274564 z m 9.9695795,-13.678702 0,-7.05059 -2.070802,0 -2.0708029,0 0,7.05059 0,7.05059 2.0708029,0 2.070802,0 0,-7.05059 z m 5.93723,2.736418 c 0.02531,-3.243439 0.06526,-4.387594 0.160989,-4.610001 0.303205,-0.704464 0.885162,-1.035401 1.820767,-1.035401 0.762428,0 1.35919,0.276072 1.667084,0.771221 0.225072,0.361955 0.225656,0.372942 0.254079,4.775571 l 0.02849,4.412782 2.079894,0 2.079892,0 -0.0533,-4.610001 c -0.04126,-3.568318 -0.08867,-4.81508 -0.209826,-5.517585 -0.36156,-2.096451 -1.060309,-3.124501 -2.509516,-3.692178 -0.463867,-0.181705 -0.762058,-0.219216 -1.789254,-0.225077 -0.733464,-0.0042 -1.44096,0.04655 -1.747096,0.12529 -0.722952,0.185944 -1.349678,0.628841 -1.597065,1.128619 l -0.205631,0.415421 -7.8e-5,-0.862834 -7.8e-5,-0.862835 -2.021497,0 -2.021498,0 0,7.05059 0,7.05059 2.014991,0 2.014993,0 0.03366,-4.314172 0,0 z M 10.918611,10.810254 c 0.735536,-0.372709 1.096139,-0.9741238 1.097404,-1.8302582 0.0034,-2.2849111 -3.2339049,-2.7660724 -3.962817,-0.5889984 -0.4509446,1.3468563 0.6617072,2.7540196 2.076535,2.6261796 0.254702,-0.02301 0.609697,-0.116129 0.788878,-0.206923 z"
       transform="translate(0,1018.3622)"
       id="path3978"
       style="fill:#007bb5;fill-opacity:1;fill-rule:nonzero;stroke:#000000;stroke-width:1.99999988;stroke-linecap:butt;stroke-linejoin:round;stroke-miterlimit:4;stroke-opacity:1;stroke-dasharray:none" />
  </g>
</svg>
