<?xml version="1.0" encoding="UTF-8" standalone="no"?>
<!-- Created with Inkscape (http://www.inkscape.org/) -->

<svg
   xmlns:dc="http://purl.org/dc/elements/1.1/"
   xmlns:cc="http://creativecommons.org/ns#"
   xmlns:rdf="http://www.w3.org/1999/02/22-rdf-syntax-ns#"
   xmlns:svg="http://www.w3.org/2000/svg"
   xmlns="http://www.w3.org/2000/svg"
   version="1.1"
   width="34"
   height="34"
   id="svg2">
  <defs
     id="defs4" />
  <metadata
     id="metadata7">
    <rdf:RDF>
      <cc:Work
         rdf:about="">
        <dc:format>image/svg+xml</dc:format>
        <dc:type
           rdf:resource="http://purl.org/dc/dcmitype/StillImage" />
        <dc:title></dc:title>
      </cc:Work>
    </rdf:RDF>
  </metadata>
  <g
     transform="translate(0,-1018.3622)"
     id="layer1">
    <g
       transform="translate(1,1019.3622)"
       id="g4024">
      <g
         id="g4000">
        <path
           d="m 32,30 c 0,1.104 -0.896,2 -2,2 H 2 C 0.896,32 0,31.104 0,30 V 2 C 0,0.896 0.896,0 2,0 h 28 c 1.104,0 2,0.896 2,2 v 28 z"
           id="path4002"
           style="fill:#55acee" />
        <path
           d="m 25.987,9.894 c -0.736,0.322 -1.525,0.537 -2.357,0.635 0.85,-0.498 1.5,-1.289 1.806,-2.231 -0.792,0.461 -1.67,0.797 -2.605,0.978 C 22.083,8.491 21.017,8 19.838,8 c -2.266,0 -4.1,1.807 -4.1,4.038 0,0.314 0.036,0.625 0.104,0.922 -3.407,-0.172 -6.429,-1.779 -8.452,-4.221 -0.352,0.597 -0.556,1.29 -0.556,2.032 0,1.399 0.726,2.635 1.824,3.36 -0.671,-0.022 -1.304,-0.203 -1.856,-0.506 -10e-4,0.017 -10e-4,0.034 -10e-4,0.052 0,1.955 1.414,3.589 3.29,3.96 -0.343,0.09 -0.705,0.142 -1.081,0.142 -0.264,0 -0.52,-0.024 -0.77,-0.072 0.52,1.604 2.034,2.771 3.828,2.805 C 10.67,21.594 8.9,22.24 6.979,22.24 6.649,22.24 6.321,22.222 6,22.184 c 1.814,1.145 3.971,1.813 6.287,1.813 7.541,0 11.666,-6.154 11.666,-11.491 0,-0.173 -0.005,-0.35 -0.012,-0.521 0.8,-0.571 1.497,-1.282 2.046,-2.091 z"
           id="path4004"
           style="fill:#ffffff" />
      </g>
      <g
         id="g4006" />
      <g
         id="g4008" />
      <g
         id="g4010" />
      <g
         id="g4012" />
      <g
         id="g4014" />
      <g
         id="g4016" />
    </g>
    <path
       d="M 2.4743943,32.883221 C 2.0383465,32.772157 1.5300091,32.325003 1.2882362,31.839828 L 1.0382946,31.33826 1.0404603,16.985266 C 1.0425228,3.3154491 1.0511733,2.6134555 1.2221998,2.2369861 1.4840403,1.6606135 2.0121098,1.2394118 2.634767,1.1102868 3.0053185,1.0334428 7.2952669,1.0094176 17.308887,1.0281064 l 14.150485,0.02641 0.394438,0.2113787 c 0.45111,0.2417487 0.63958,0.4349056 0.900248,0.9226323 0.177327,0.3317894 0.185636,0.8922518 0.214917,14.4956186 0.02229,10.357878 1.97e-4,14.290902 -0.08242,14.67439 -0.134219,0.622967 -0.55779,1.152115 -1.13051,1.412297 -0.376847,0.171197 -1.064531,0.179141 -14.742989,0.170301 -7.8912374,-0.0051 -14.433636,-0.03116 -14.5386637,-0.05791 l 0,0 z M 15.860303,24.761757 c 3.447024,-0.69479 6.283736,-2.883678 7.848483,-6.056114 0.798786,-1.619493 1.282206,-3.512529 1.296858,-5.078397 l 0.006,-0.640962 0.569496,-0.462475 c 0.545463,-0.442957 1.465944,-1.517443 1.376539,-1.606848 -0.02354,-0.02355 -0.386497,0.06633 -0.80656,0.199727 -1.112889,0.353408 -1.237918,0.327014 -0.71858,-0.151696 0.385382,-0.355233 1.125378,-1.5324999 1.025847,-1.632031 -0.0221,-0.022095 -0.392452,0.1132271 -0.823016,0.300716 -0.430564,0.187489 -1.016858,0.393487 -1.302877,0.457774 -0.496581,0.111614 -0.532158,0.105776 -0.788877,-0.1294576 -0.676972,-0.6203138 -1.643424,-0.9698116 -2.677694,-0.9683332 -1.231857,0.00176 -2.139489,0.3657535 -2.961337,1.1876018 -0.840203,0.840203 -1.241462,1.908933 -1.172787,3.123654 l 0.03474,0.614462 -0.542353,-0.05731 c -0.786706,-0.08313 -2.317478,-0.465973 -3.1102,-0.777853 -1.449825,-0.570404 -2.681042,-1.38729 -3.9114049,-2.595133 L 8.3440726,9.6462932 8.1388597,10.125035 c -0.6307354,1.471451 -0.3274996,3.235428 0.7566573,4.4016 L 9.37081,15.037884 8.9413676,14.970707 C 8.7051744,14.93376 8.385664,14.838238 8.2313446,14.758437 7.7659665,14.51778 7.7178584,14.558907 7.7954852,15.131044 c 0.2054288,1.514081 1.1274861,2.731975 2.4865458,3.284338 l 0.532466,0.21641 -0.35672,0.06692 c -0.196195,0.03681 -0.5543057,0.03729 -0.7958003,0.0011 -0.5233144,-0.07848 -0.5362396,-0.03141 -0.1828707,0.665932 0.50773,1.001957 1.652691,1.851981 2.813519,2.088768 l 0.604261,0.123258 -0.484014,0.310591 c -1.333238,0.855538 -2.6457466,1.236296 -4.2990169,1.247142 -0.6370899,0.0042 -1.1584448,0.02979 -1.1585663,0.0569 -5.029e-4,0.111606 1.5880238,0.890075 2.388415,1.170463 0.7730332,0.270804 1.8816872,0.521192 2.8374812,0.640841 0.676746,0.08472 2.727625,-0.05014 3.679118,-0.241929 l 0,0 z"
       transform="translate(0,1018.3622)"
       id="path4035"
       style="fill:#55acee;fill-opacity:1;fill-rule:nonzero;stroke:#000000;stroke-width:1.99999988;stroke-linecap:butt;stroke-linejoin:round;stroke-miterlimit:4;stroke-opacity:1;stroke-dasharray:none" />
  </g>
</svg>
