<?xml version="1.0" encoding="UTF-8" standalone="no"?>
<!-- Created with Inkscape (http://www.inkscape.org/) -->

<svg
   xmlns:dc="http://purl.org/dc/elements/1.1/"
   xmlns:cc="http://creativecommons.org/ns#"
   xmlns:rdf="http://www.w3.org/1999/02/22-rdf-syntax-ns#"
   xmlns:svg="http://www.w3.org/2000/svg"
   xmlns="http://www.w3.org/2000/svg"
   version="1.1"
   width="34"
   height="34"
   id="svg2">
  <defs
     id="defs4" />
  <metadata
     id="metadata7">
    <rdf:RDF>
      <cc:Work
         rdf:about="">
        <dc:format>image/svg+xml</dc:format>
        <dc:type
           rdf:resource="http://purl.org/dc/dcmitype/StillImage" />
        <dc:title></dc:title>
      </cc:Work>
    </rdf:RDF>
  </metadata>
  <g
     transform="translate(0,-1018.3622)"
     id="layer1">
    <g
       transform="translate(1.0378436,1019.3374)"
       id="g3009">
      <g
         id="g2986">
        <path
           d="m 32,30 c 0,1.104 -0.896,2 -2,2 H 2 C 0.896,32 0,31.104 0,30 V 2 C 0,0.896 0.896,0 2,0 h 28 c 1.104,0 2,0.896 2,2 v 28 z"
           id="path2988"
           style="fill:#3b5998" />
        <path
           d="M 22,32 V 20 h 4 l 1,-5 h -5 v -2 c 0,-2 1.002,-3 3,-3 h 2 V 5 c -1,0 -2.24,0 -4,0 -3.675,0 -6,2.881 -6,7 v 3 h -4 v 5 h 4 v 12 h 5 z"
           id="f"
           style="fill:#ffffff" />
      </g>
      <g
         id="g2991" />
      <g
         id="g2993" />
      <g
         id="g2995" />
      <g
         id="g2997" />
      <g
         id="g2999" />
      <g
         id="g3001" />
    </g>
    <path
       d="m 2.3823836,1051.1423 c -0.36013,-0.1596 -0.74699,-0.4871 -0.98596,-0.8347 -0.21354,-0.3107 -0.23063,-1.4174 -0.23063,-14.939 l 0,-14.6036 0.308,-0.461 c 0.66797,-0.9999 -0.40364,-0.9355 15.5669304,-0.9355 15.97056,0 14.89895,-0.064 15.56693,0.9355 l 0.30799,0.461 0,14.5789 c 0,16.2763 0.0753,15.0459 -0.95604,15.6255 -0.48257,0.2713 -0.69467,0.2842 -4.65936,0.2842 l -4.15378,0 0,-5.9022 0,-5.9022 1.96482,0 c 1.92574,0 1.96625,-0.01 2.037,-0.3053 0.21722,-0.9186 0.88277,-4.3871 0.88277,-4.6005 0,-0.2339 -0.15974,-0.2502 -2.45659,-0.2502 l -2.45659,0 0.0482,-1.6043 c 0.0441,-1.4673 0.079,-1.6508 0.40924,-2.1497 0.55938,-0.8451 1.12518,-1.0543 2.99713,-1.1077 l 1.59428,-0.046 0,-2.5667 0,-2.5666 -2.28809,0 c -1.25845,0 -2.61698,0.061 -3.01895,0.1364 -1.76505,0.3294 -3.21757,1.4638 -4.05314,3.1655 -0.6046,1.2312 -0.81098,2.4328 -0.8137,4.7374 l -0.002,2.0013 -2.03525,0 -2.03525,0 0,2.578 0,2.5779 2.03525,0 2.03525,0 0,5.9022 0,5.9023 -7.70002,-0.01 c -4.2350104,0 -7.7936504,-0.051 -7.9081004,-0.1018 l 0,0 z"
       id="path3022"
       style="fill:#3b5998;fill-opacity:1;fill-rule:nonzero;stroke:#000000;stroke-width:2;stroke-linecap:butt;stroke-linejoin:round;stroke-miterlimit:4;stroke-opacity:1;stroke-dasharray:none" />
  </g>
</svg>
